<svg preserveAspectRatio="none" width="52" height="46" viewBox="0 0 52 46" fill="none" xmlns="http://www.w3.org/2000/svg">
<path d="M50.9136 11.9281C50.3157 9.94885 48.5538 8.39033 46.3164 7.86133C42.2608 6.9 26 6.9 26 6.9C26 6.9 9.73913 6.9 5.68354 7.86133C3.44652 8.39033 1.68431 9.94885 1.08641 11.9281C0 15.5154 0 23.0003 0 23.0003C0 23.0003 0 30.485 1.08641 34.0719C1.68431 36.0511 3.44652 37.6101 5.68354 38.139C9.73913 39.1 26 39.1 26 39.1C26 39.1 42.2608 39.1 46.3164 38.139C48.5538 37.6101 50.3157 36.0511 50.9136 34.0719C51.9999 30.485 51.9999 23.0003 51.9999 23.0003C51.9999 23.0003 51.9999 15.5154 50.9136 11.9281ZM20.7997 29.9004V16.1001L34.3094 23.0003L20.7997 29.9004Z" fill="#00D4D5"/>
</svg>
