<svg preserveAspectRatio="none" width="115" height="116" viewBox="0 0 115 116" fill="none" xmlns="http://www.w3.org/2000/svg">
<path d="M104.659 56.2921C104.607 54.4084 102.803 52.9623 100.985 53.4373C98.8087 54.0082 96.5214 53.9995 94.3495 53.4121C92.1776 52.8247 90.1964 51.679 88.602 50.0882C88.0327 49.5077 87.5179 48.8759 87.0641 48.2008C86.7122 47.6613 86.2005 47.2458 85.6009 47.0129C85.0012 46.7799 84.3439 46.7412 83.7212 46.902C81.5587 47.4557 79.2897 47.4356 77.1374 46.8438C74.985 46.2519 73.0234 45.1087 71.4455 43.5265C69.8675 41.9443 68.7276 39.9777 68.1378 37.82C67.5481 35.6623 67.5288 33.3879 68.0818 31.2204C68.2413 30.5966 68.2021 29.9384 67.9698 29.338C67.7374 28.7377 67.3235 28.2252 66.7861 27.8724C66.117 27.4192 65.4926 26.903 64.9214 26.3308C63.3328 24.7397 62.1878 22.7591 61.6005 20.5864C61.0131 18.4137 61.0038 16.1246 61.5736 13.9472C62.0494 12.1157 60.598 10.3063 58.7103 10.2552C52.2911 10.0695 45.9018 11.2021 39.9354 13.5832C33.969 15.9644 28.5517 19.5438 24.0164 24.1013C5.03983 43.1233 5.59058 74.2792 25.6302 92.6104C43.5438 108.989 71.319 108.989 89.2326 92.6104C94.2657 88.0308 98.2504 82.4136 100.913 76.1445C103.576 69.8754 104.854 63.1029 104.659 56.2921ZM38.115 54.7177C36.3239 54.2966 34.6775 53.4035 33.3463 52.1306C32.015 50.8578 31.0472 49.2515 30.543 47.4779C30.0388 45.7044 30.0165 43.828 30.4785 42.043C30.9404 40.2579 31.8698 38.629 33.1704 37.3247C34.471 36.0205 36.0957 35.0882 37.8764 34.6245C39.657 34.1608 41.5289 34.1824 43.2984 34.6871C45.0679 35.1918 46.6707 36.1613 47.9411 37.4953C49.2114 38.8292 50.1031 40.4791 50.5239 42.2744C50.947 43.9923 50.9205 45.7906 50.447 47.4953C49.9735 49.1999 49.0689 50.7531 47.821 52.0046C46.573 53.256 45.0238 54.1633 43.3234 54.6387C41.623 55.114 39.829 55.1412 38.115 54.7177ZM53.1364 79.8983C52.9083 80.9623 52.3974 81.9447 51.6577 82.7413C50.9179 83.538 49.977 84.1192 48.9346 84.4234C47.8921 84.7275 46.787 84.7434 45.7363 84.4692C44.6856 84.195 43.7284 83.6411 42.9663 82.866C42.2041 82.0909 41.6654 81.1235 41.4071 80.0665C41.1487 79.0094 41.1805 77.902 41.499 76.8615C41.8175 75.8211 42.4109 74.8864 43.2162 74.1565C44.0216 73.4266 45.0089 72.9287 46.0736 72.7155C47.052 72.5206 48.0634 72.5723 49.0169 72.8661C49.9704 73.1598 50.8362 73.6864 51.5364 74.3986C52.2367 75.1107 52.7495 75.9861 53.0287 76.946C53.308 77.906 53.345 78.9204 53.1364 79.8983ZM87.0315 67.9694C86.8056 69.381 86.1951 70.7026 85.2672 71.7882C84.3394 72.8739 83.1303 73.6815 81.7734 74.1218C80.4165 74.5621 78.9647 74.618 77.5781 74.2834C76.1916 73.9488 74.9242 73.2366 73.916 72.2255C72.9077 71.2144 72.1978 69.9437 71.8645 68.5537C71.5313 67.1637 71.5877 65.7084 72.0275 64.3485C72.4674 62.9886 73.2735 61.7769 74.357 60.8473C75.4405 59.9177 76.7592 59.3062 78.1674 59.0805C79.3743 58.8947 80.6079 58.9964 81.7682 59.3775C82.9285 59.7585 83.983 60.4082 84.8462 61.2738C85.7094 62.1394 86.357 63.1967 86.7367 64.3599C87.1164 65.5232 87.2173 66.7598 87.0315 67.9694Z" fill="#04C4C7"/>
</svg>
