<svg preserveAspectRatio="none" width="204" height="204" viewBox="0 0 204 204" fill="none" xmlns="http://www.w3.org/2000/svg">
<rect width="204" height="204" fill="#3B2685"/>
<path d="M58.5917 130.858C64.6833 126.904 71.4917 123.786 79.0167 121.505C86.5417 119.224 94.425 118.083 102.667 118.083C110.908 118.083 118.792 119.224 126.317 121.505C133.842 123.786 140.65 126.904 146.742 130.858C150.922 126.701 154.177 121.987 156.506 116.715C158.835 111.442 160 105.815 160 99.8333C160 86.3486 154.416 74.8663 143.248 65.3865C132.08 55.9066 118.553 51.1667 102.667 51.1667C86.7806 51.1667 73.2535 55.9066 62.0854 65.3865C50.9174 74.8663 45.3333 86.3486 45.3333 99.8333C45.3333 105.815 46.4979 111.442 48.8271 116.715C51.1563 121.987 54.4111 126.701 58.5917 130.858ZM102.667 105.917C95.6194 105.917 89.6771 103.864 84.8396 99.7573C80.0021 95.651 77.5833 90.6069 77.5833 84.625C77.5833 78.6431 80.0021 73.599 84.8396 69.4927C89.6771 65.3865 95.6194 63.3333 102.667 63.3333C109.714 63.3333 115.656 65.3865 120.494 69.4927C125.331 73.599 127.75 78.6431 127.75 84.625C127.75 90.6069 125.331 95.651 120.494 99.7573C115.656 103.864 109.714 105.917 102.667 105.917ZM102.667 160.667C92.7528 160.667 83.4361 159.07 74.7167 155.876C65.9972 152.682 58.4125 148.348 51.9625 142.873C45.5125 137.398 40.4063 130.96 36.6438 123.558C32.8813 116.157 31 108.249 31 99.8333C31 91.4181 32.8813 83.5097 36.6438 76.1083C40.4063 68.7069 45.5125 62.2688 51.9625 56.7938C58.4125 51.3188 65.9972 46.9844 74.7167 43.7906C83.4361 40.5969 92.7528 39 102.667 39C112.581 39 121.897 40.5969 130.617 43.7906C139.336 46.9844 146.921 51.3188 153.371 56.7938C159.821 62.2688 164.927 68.7069 168.69 76.1083C172.452 83.5097 174.333 91.4181 174.333 99.8333C174.333 108.249 172.452 116.157 168.69 123.558C164.927 130.96 159.821 137.398 153.371 142.873C146.921 148.348 139.336 152.682 130.617 155.876C121.897 159.07 112.581 160.667 102.667 160.667ZM102.667 148.5C108.997 148.5 114.969 147.714 120.583 146.143C126.197 144.571 131.333 142.315 135.992 139.375C131.333 136.435 126.197 134.179 120.583 132.607C114.969 131.036 108.997 130.25 102.667 130.25C96.3361 130.25 90.3639 131.036 84.75 132.607C79.1361 134.179 74 136.435 69.3417 139.375C74 142.315 79.1361 144.571 84.75 146.143C90.3639 147.714 96.3361 148.5 102.667 148.5ZM102.667 93.75C105.772 93.75 108.34 92.8882 110.371 91.1646C112.401 89.441 113.417 87.2611 113.417 84.625C113.417 81.9889 112.401 79.809 110.371 78.0854C108.34 76.3618 105.772 75.5 102.667 75.5C99.5611 75.5 96.9931 76.3618 94.9625 78.0854C92.9319 79.809 91.9167 81.9889 91.9167 84.625C91.9167 87.2611 92.9319 89.441 94.9625 91.1646C96.9931 92.8882 99.5611 93.75 102.667 93.75Z" fill="#9E2CAC"/>
<path d="M58.5917 130.858C64.6833 126.904 71.4917 123.786 79.0167 121.505C86.5417 119.224 94.425 118.083 102.667 118.083C110.908 118.083 118.792 119.224 126.317 121.505C133.842 123.786 140.65 126.904 146.742 130.858C150.922 126.701 154.177 121.987 156.506 116.715C158.835 111.442 160 105.815 160 99.8333C160 86.3486 154.416 74.8663 143.248 65.3865C132.08 55.9066 118.553 51.1667 102.667 51.1667C86.7806 51.1667 73.2535 55.9066 62.0854 65.3865C50.9174 74.8663 45.3333 86.3486 45.3333 99.8333C45.3333 105.815 46.4979 111.442 48.8271 116.715C51.1563 121.987 54.4111 126.701 58.5917 130.858ZM102.667 105.917C95.6194 105.917 89.6771 103.864 84.8396 99.7573C80.0021 95.651 77.5833 90.6069 77.5833 84.625C77.5833 78.6431 80.0021 73.599 84.8396 69.4927C89.6771 65.3865 95.6194 63.3333 102.667 63.3333C109.714 63.3333 115.656 65.3865 120.494 69.4927C125.331 73.599 127.75 78.6431 127.75 84.625C127.75 90.6069 125.331 95.651 120.494 99.7573C115.656 103.864 109.714 105.917 102.667 105.917ZM102.667 160.667C92.7528 160.667 83.4361 159.07 74.7167 155.876C65.9972 152.682 58.4125 148.348 51.9625 142.873C45.5125 137.398 40.4063 130.96 36.6438 123.558C32.8813 116.157 31 108.249 31 99.8333C31 91.4181 32.8813 83.5097 36.6438 76.1083C40.4063 68.7069 45.5125 62.2688 51.9625 56.7938C58.4125 51.3188 65.9972 46.9844 74.7167 43.7906C83.4361 40.5969 92.7528 39 102.667 39C112.581 39 121.897 40.5969 130.617 43.7906C139.336 46.9844 146.921 51.3188 153.371 56.7938C159.821 62.2688 164.927 68.7069 168.69 76.1083C172.452 83.5097 174.333 91.4181 174.333 99.8333C174.333 108.249 172.452 116.157 168.69 123.558C164.927 130.96 159.821 137.398 153.371 142.873C146.921 148.348 139.336 152.682 130.617 155.876C121.897 159.07 112.581 160.667 102.667 160.667ZM102.667 148.5C108.997 148.5 114.969 147.714 120.583 146.143C126.197 144.571 131.333 142.315 135.992 139.375C131.333 136.435 126.197 134.179 120.583 132.607C114.969 131.036 108.997 130.25 102.667 130.25C96.3361 130.25 90.3639 131.036 84.75 132.607C79.1361 134.179 74 136.435 69.3417 139.375C74 142.315 79.1361 144.571 84.75 146.143C90.3639 147.714 96.3361 148.5 102.667 148.5ZM102.667 93.75C105.772 93.75 108.34 92.8882 110.371 91.1646C112.401 89.441 113.417 87.2611 113.417 84.625C113.417 81.9889 112.401 79.809 110.371 78.0854C108.34 76.3618 105.772 75.5 102.667 75.5C99.5611 75.5 96.9931 76.3618 94.9625 78.0854C92.9319 79.809 91.9167 81.9889 91.9167 84.625C91.9167 87.2611 92.9319 89.441 94.9625 91.1646C96.9931 92.8882 99.5611 93.75 102.667 93.75Z" fill="#9E2CAC"/>
</svg>
