<svg preserveAspectRatio="none" width="54" height="48" viewBox="0 0 54 48" fill="none" xmlns="http://www.w3.org/2000/svg">
<path fill-rule="evenodd" clip-rule="evenodd" d="M27 3.09677C41.9017 3.09677 54 12.3145 54 23.6682C54 35.0219 41.9017 44.2396 27 44.2396C12.0983 44.2396 0 35.0219 0 23.6682C0 12.3145 12.0983 3.09677 27 3.09677ZM27 10.8111C22.4171 10.8111 21.8424 10.8258 20.0424 10.8884C18.2463 10.9509 17.0196 11.1682 15.9461 11.4861C14.8365 11.8146 13.8954 12.2543 12.9573 12.9691C12.0191 13.6838 11.4421 14.4009 11.0108 15.2463C10.5937 16.0641 10.3085 16.9987 10.2265 18.3672C10.1444 19.7386 10.125 20.1764 10.125 23.6682C10.125 27.16 10.1444 27.5978 10.2265 28.9692C10.3085 30.3377 10.5937 31.2723 11.0108 32.0901C11.4421 32.9356 12.0191 33.6526 12.9573 34.3674C13.8954 35.0822 14.8365 35.5218 15.9461 35.8504C17.0196 36.1682 18.2463 36.3855 20.0424 36.448C21.8424 36.5106 22.4171 36.5253 27 36.5253C31.5829 36.5253 32.1576 36.5106 33.9576 36.448C35.7537 36.3855 36.9804 36.1682 38.0538 35.8504C39.1634 35.5218 40.1045 35.0822 41.0427 34.3674C41.9809 33.6526 42.5579 32.9356 42.9892 32.0901C43.4062 31.2723 43.6915 30.3377 43.7734 28.9692C43.8556 27.5978 43.875 27.16 43.875 23.6682C43.875 20.1764 43.8556 19.7386 43.7734 18.3672C43.6915 16.9987 43.4062 16.0641 42.9892 15.2463C42.5579 14.4009 41.9809 13.6838 41.0427 12.9691C40.1045 12.2543 39.1634 11.8146 38.0538 11.4861C36.9804 11.1682 35.7537 10.9509 33.9576 10.8884C32.1576 10.8258 31.5829 10.8111 27 10.8111ZM27 13.1277C31.5058 13.1277 32.0395 13.1408 33.819 13.2026C35.4643 13.2599 36.3577 13.4693 36.9523 13.6453C37.7401 13.8785 38.3022 14.1572 38.8927 14.6071C39.4833 15.057 39.8489 15.4854 40.155 16.0855C40.3861 16.5385 40.6611 17.2192 40.736 18.4728C40.8173 19.8286 40.8344 20.2352 40.8344 23.6682C40.8344 27.1012 40.8173 27.5078 40.736 28.8636C40.6611 30.1172 40.3861 30.7979 40.155 31.2509C39.8489 31.8511 39.4833 32.2794 38.8927 32.7293C38.3022 33.1793 37.7401 33.4579 36.9523 33.6911C36.3577 33.8671 35.4643 34.0766 33.819 34.1338C32.0398 34.1956 31.5062 34.2087 27 34.2087C22.4938 34.2087 21.9603 34.1956 20.181 34.1338C18.5357 34.0766 17.6423 33.8671 17.0477 33.6911C16.2599 33.4579 15.6978 33.1793 15.1072 32.7293C14.5167 32.2794 14.1511 31.8511 13.845 31.2509C13.6139 30.7979 13.3389 30.1172 13.2639 28.8636C13.1826 27.5078 13.1656 27.1012 13.1656 23.6682C13.1656 20.2352 13.1826 19.8286 13.2639 18.4728C13.3389 17.2192 13.6139 16.5385 13.845 16.0855C14.1511 15.4854 14.5167 15.057 15.1072 14.6071C15.6978 14.1572 16.2599 13.8785 17.0477 13.6453C17.6423 13.4693 18.5357 13.2599 20.181 13.2026C21.9605 13.1408 22.4942 13.1277 27 13.1277ZM27 17.0659C22.2141 17.0659 18.3345 20.0218 18.3345 23.6682C18.3345 27.3146 22.2141 30.2705 27 30.2705C31.7859 30.2705 35.6655 27.3146 35.6655 23.6682C35.6655 20.0218 31.7859 17.0659 27 17.0659ZM27 27.9539C23.8934 27.9539 21.375 26.0351 21.375 23.6682C21.375 21.3013 23.8934 19.3825 27 19.3825C30.1066 19.3825 32.625 21.3013 32.625 23.6682C32.625 26.0351 30.1066 27.9539 27 27.9539ZM38.033 16.8051C38.033 17.6572 37.1263 18.3478 36.0079 18.3478C34.8896 18.3478 33.983 17.6572 33.983 16.8051C33.983 15.953 34.8896 15.2622 36.0079 15.2622C37.1263 15.2622 38.033 15.953 38.033 16.8051Z" fill="#00D4D5"/>
</svg>
