<svg preserveAspectRatio="none" width="60" height="52" viewBox="0 0 60 52" fill="none" xmlns="http://www.w3.org/2000/svg">
<g clip-path="url(#clip0_121_13)">
<path d="M30 0C13.4314 0 0 11.6406 0 26C0 40.3594 13.4314 52 30 52C46.5686 52 60 40.3594 60 26C60 11.6406 46.5686 0 30 0ZM45.1898 23.6013C42.0042 23.6013 38.9046 22.7053 36.518 21.1892L36.499 31.4978C36.497 33.4079 35.8229 35.2721 34.5667 36.8416C33.3104 38.4111 31.5318 39.6112 29.4681 40.2818C27.4044 40.9524 25.1538 41.0616 23.0166 40.5948C20.8794 40.1281 18.9573 39.1075 17.5067 37.6694C16.0562 36.2313 15.1462 34.444 14.8982 32.546C14.6502 30.648 15.076 28.7295 16.1187 27.0467C17.1615 25.3639 18.7716 23.9967 20.7342 23.1275C22.6968 22.2584 24.9186 21.9287 27.1031 22.1824V27.2448C26.0727 26.9809 24.9725 27.005 23.9587 27.3135C22.9449 27.622 22.0689 28.1993 21.455 28.9635C20.841 29.7278 20.5203 30.6401 20.5383 31.5712C20.5563 32.5023 20.9121 33.4049 21.5552 34.1509C22.1983 34.8969 23.0961 35.4484 24.1213 35.7273C25.1465 36.0063 26.2469 35.9984 27.2666 35.7048C28.2863 35.4112 29.1734 34.8468 29.8022 34.0917C30.431 33.3365 30.7695 32.429 30.7697 31.4978V11.1041H36.7785C36.7785 12.0614 36.996 13.0093 37.4187 13.8937C37.8414 14.7781 38.461 15.5817 39.242 16.2586C40.023 16.9355 40.9503 17.4724 41.9707 17.8387C42.9912 18.2051 44.0849 18.3936 45.1895 18.3936L45.1898 23.6013Z" fill="#00D4D5"/>
</g>
<defs>
<clipPath id="clip0_121_13">
<rect width="60" height="52" fill="white"/>
</clipPath>
</defs>
</svg>
