<svg preserveAspectRatio="none" width="64" height="45" viewBox="0 0 64 45" fill="none" xmlns="http://www.w3.org/2000/svg">
<path fill-rule="evenodd" clip-rule="evenodd" d="M56.1808 0C60.4964 0 64 2.44011 64 5.44555V39.1259C64 42.1313 60.4963 44.5714 56.1808 44.5714H23.654C25.0086 42.9804 26.7293 40.7285 27.4158 38.89C27.8321 37.7738 29.5499 33.219 29.5499 33.219C30.6666 34.7024 33.9299 35.9582 37.4007 35.9582C47.7322 35.9582 55.1756 29.3417 55.1756 21.1201C55.1756 13.2393 45.9411 7.34253 34.0585 7.34253C19.2761 7.34253 11.4256 14.2532 11.4256 21.7784C11.4256 25.2772 14.1002 29.633 18.3785 31.0201C19.0275 31.2303 19.3746 31.1377 19.524 30.7009C19.6376 30.3693 20.2153 28.7491 20.4755 27.9956C20.5586 27.7547 20.5175 27.5475 20.2379 27.3113C18.8225 26.1162 17.6886 23.9177 17.6886 21.8673C17.6886 16.606 23.4095 11.5148 33.156 11.5148C41.5706 11.5148 47.4641 15.5084 47.4641 21.22C47.4641 27.6734 42.7844 32.1441 36.6959 32.1441C33.3334 32.1441 30.8166 30.2078 31.6235 27.8332C32.5894 24.9974 34.4605 21.9374 34.4605 19.8905C34.4605 18.0583 33.0486 16.5302 30.1264 16.5302C26.6889 16.5302 23.9282 19.0067 23.9282 22.3237C23.9282 24.4365 24.953 25.8654 24.953 25.8654C24.953 25.8654 21.5586 35.8615 20.9365 37.7231C20.2478 39.7827 20.5175 42.6836 20.817 44.5711L20.8184 44.5714H7.81925C3.50375 44.5714 0 42.1313 0 39.1259V5.44555C0 2.44011 3.50362 0 7.81925 0L56.1808 0Z" fill="#00D4D5"/>
</svg>
